<mxfile modified="2019-11-18T12:29:42.051Z" host="www.draw.io" agent="Mozilla/5.0 (Windows NT 10.0; Win64; x64) AppleWebKit/537.36 (KHTML, like Gecko) Chrome/78.0.3904.97 Safari/537.36" etag="9bQ87CT63lxA523rE4EA" version="12.2.6" type="github" pages="1">
  <diagram id="Uv_IUAGfh6rt7eSbK6z7" name="Page-1">
    <mxGraphModel dx="2266" dy="589" grid="1" gridSize="10" guides="1" tooltips="1" connect="1" arrows="1" fold="1" page="1" pageScale="1" pageWidth="1169" pageHeight="827" math="0" shadow="0">
      <root>
        <mxCell id="0"/>
        <mxCell id="1" parent="0"/>
        <mxCell id="ZdLvu9rMF-e9NeADQEDv-1" value="&lt;h1&gt;&lt;font style=&quot;font-size: 14px&quot;&gt;aim: plan scenic spots&lt;/font&gt;&lt;/h1&gt;&lt;p&gt;&lt;font size=&quot;3&quot;&gt;1. city name (mandatory)&lt;br&gt;&lt;/font&gt;&lt;/p&gt;&lt;p&gt;&lt;font size=&quot;3&quot;&gt;2. days (mandatory)&lt;/font&gt;&lt;/p&gt;&lt;p&gt;&lt;font size=&quot;3&quot;&gt;3. scenic scheme no (mandatory)&amp;nbsp;&lt;/font&gt;&lt;/p&gt;" style="text;html=1;strokeColor=none;fillColor=none;spacing=5;spacingTop=-20;whiteSpace=wrap;overflow=hidden;rounded=0;" parent="1" vertex="1">
          <mxGeometry x="118" y="375.5" width="330" height="140" as="geometry"/>
        </mxCell>
        <mxCell id="ZdLvu9rMF-e9NeADQEDv-6" value="" style="edgeStyle=orthogonalEdgeStyle;rounded=0;orthogonalLoop=1;jettySize=auto;html=1;" parent="1" source="ZdLvu9rMF-e9NeADQEDv-2" edge="1">
          <mxGeometry relative="1" as="geometry">
            <mxPoint x="530.1428571428573" y="420" as="targetPoint"/>
          </mxGeometry>
        </mxCell>
        <mxCell id="ZdLvu9rMF-e9NeADQEDv-2" value="&lt;span style=&quot;font-size: 14px&quot;&gt;start&lt;/span&gt;" style="strokeWidth=2;html=1;shape=mxgraph.flowchart.terminator;whiteSpace=wrap;" parent="1" vertex="1">
          <mxGeometry x="480" y="330.0185241699219" width="100" height="60" as="geometry"/>
        </mxCell>
        <mxCell id="ZdLvu9rMF-e9NeADQEDv-8" value="" style="edgeStyle=orthogonalEdgeStyle;rounded=0;orthogonalLoop=1;jettySize=auto;html=1;exitX=0.5;exitY=1;exitDx=0;exitDy=0;" parent="1" source="pfhdU-tTY5kygRQVZPBf-1" target="ZdLvu9rMF-e9NeADQEDv-7" edge="1">
          <mxGeometry relative="1" as="geometry">
            <mxPoint x="530.1428571428573" y="470" as="sourcePoint"/>
          </mxGeometry>
        </mxCell>
        <mxCell id="3d76lTKfxvikt1JQ4MvX-3" style="edgeStyle=orthogonalEdgeStyle;rounded=0;orthogonalLoop=1;jettySize=auto;html=1;exitX=0.5;exitY=1;exitDx=0;exitDy=0;entryX=0.5;entryY=0;entryDx=0;entryDy=0;" parent="1" source="ZdLvu9rMF-e9NeADQEDv-7" target="3d76lTKfxvikt1JQ4MvX-1" edge="1">
          <mxGeometry relative="1" as="geometry">
            <mxPoint x="529.1666666666667" y="587.6666666666667" as="targetPoint"/>
          </mxGeometry>
        </mxCell>
        <mxCell id="ZdLvu9rMF-e9NeADQEDv-7" value="&lt;font style=&quot;font-size: 14px&quot;&gt;user: input demands&lt;/font&gt;" style="shape=parallelogram;perimeter=parallelogramPerimeter;whiteSpace=wrap;html=1;" parent="1" vertex="1">
          <mxGeometry x="438.5" y="503" width="182" height="53" as="geometry"/>
        </mxCell>
        <mxCell id="ZdLvu9rMF-e9NeADQEDv-18" value="" style="edgeStyle=orthogonalEdgeStyle;rounded=0;orthogonalLoop=1;jettySize=auto;html=1;" parent="1" source="ZdLvu9rMF-e9NeADQEDv-10" target="ZdLvu9rMF-e9NeADQEDv-17" edge="1">
          <mxGeometry relative="1" as="geometry"/>
        </mxCell>
        <mxCell id="ZdLvu9rMF-e9NeADQEDv-10" value="&lt;font style=&quot;font-size: 14px&quot;&gt;&amp;nbsp; robot: show scheme&lt;br&gt;&amp;nbsp;list and ask 3&lt;/font&gt;" style="shape=parallelogram;perimeter=parallelogramPerimeter;whiteSpace=wrap;html=1;" parent="1" vertex="1">
          <mxGeometry x="446" y="1011.5" width="166" height="53" as="geometry"/>
        </mxCell>
        <mxCell id="ZdLvu9rMF-e9NeADQEDv-14" value="all is ok" style="edgeStyle=orthogonalEdgeStyle;rounded=0;orthogonalLoop=1;jettySize=auto;html=1;exitX=1;exitY=0.5;exitDx=0;exitDy=0;entryX=1;entryY=0.5;entryDx=0;entryDy=0;" parent="1" source="ZdLvu9rMF-e9NeADQEDv-12" target="pfhdU-tTY5kygRQVZPBf-18" edge="1">
          <mxGeometry x="-0.1249" relative="1" as="geometry">
            <mxPoint x="530" y="930" as="targetPoint"/>
            <Array as="points">
              <mxPoint x="700" y="820"/>
              <mxPoint x="700" y="955"/>
            </Array>
            <mxPoint as="offset"/>
          </mxGeometry>
        </mxCell>
        <mxCell id="ZdLvu9rMF-e9NeADQEDv-15" style="edgeStyle=orthogonalEdgeStyle;rounded=0;orthogonalLoop=1;jettySize=auto;html=1;exitX=0;exitY=0.5;exitDx=0;exitDy=0;entryX=1;entryY=0.5;entryDx=0;entryDy=0;" parent="1" source="ZdLvu9rMF-e9NeADQEDv-12" target="pfhdU-tTY5kygRQVZPBf-4" edge="1">
          <mxGeometry relative="1" as="geometry">
            <Array as="points">
              <mxPoint x="410" y="820"/>
              <mxPoint x="410" y="820"/>
            </Array>
          </mxGeometry>
        </mxCell>
        <mxCell id="pfhdU-tTY5kygRQVZPBf-12" value="no 2" style="text;html=1;resizable=0;points=[];align=center;verticalAlign=middle;labelBackgroundColor=#ffffff;" parent="ZdLvu9rMF-e9NeADQEDv-15" vertex="1" connectable="0">
          <mxGeometry x="-0.1776" y="2" relative="1" as="geometry">
            <mxPoint as="offset"/>
          </mxGeometry>
        </mxCell>
        <mxCell id="pfhdU-tTY5kygRQVZPBf-10" style="edgeStyle=orthogonalEdgeStyle;rounded=0;orthogonalLoop=1;jettySize=auto;html=1;exitX=0.5;exitY=1;exitDx=0;exitDy=0;entryX=1;entryY=0.5;entryDx=0;entryDy=0;" parent="1" source="ZdLvu9rMF-e9NeADQEDv-12" target="pfhdU-tTY5kygRQVZPBf-5" edge="1">
          <mxGeometry relative="1" as="geometry">
            <Array as="points">
              <mxPoint x="529" y="897"/>
            </Array>
          </mxGeometry>
        </mxCell>
        <mxCell id="pfhdU-tTY5kygRQVZPBf-11" value="no 1" style="text;html=1;resizable=0;points=[];align=center;verticalAlign=middle;labelBackgroundColor=#ffffff;" parent="pfhdU-tTY5kygRQVZPBf-10" vertex="1" connectable="0">
          <mxGeometry x="0.3416" relative="1" as="geometry">
            <mxPoint as="offset"/>
          </mxGeometry>
        </mxCell>
        <mxCell id="pfhdU-tTY5kygRQVZPBf-15" style="edgeStyle=orthogonalEdgeStyle;rounded=0;orthogonalLoop=1;jettySize=auto;html=1;exitX=0;exitY=0;exitDx=0;exitDy=0;entryX=1;entryY=0.75;entryDx=0;entryDy=0;" parent="1" source="ZdLvu9rMF-e9NeADQEDv-12" target="pfhdU-tTY5kygRQVZPBf-13" edge="1">
          <mxGeometry relative="1" as="geometry">
            <Array as="points">
              <mxPoint x="489" y="750"/>
            </Array>
          </mxGeometry>
        </mxCell>
        <mxCell id="pfhdU-tTY5kygRQVZPBf-16" value="no both 1 and 2" style="text;html=1;resizable=0;points=[];align=center;verticalAlign=middle;labelBackgroundColor=#ffffff;" parent="pfhdU-tTY5kygRQVZPBf-15" vertex="1" connectable="0">
          <mxGeometry x="0.1915" y="-1" relative="1" as="geometry">
            <mxPoint as="offset"/>
          </mxGeometry>
        </mxCell>
        <mxCell id="ZdLvu9rMF-e9NeADQEDv-12" value="&lt;font style=&quot;font-size: 14px&quot;&gt;slot 1, 2?&lt;br&gt;&lt;/font&gt;" style="rhombus;whiteSpace=wrap;html=1;" parent="1" vertex="1">
          <mxGeometry x="450" y="790" width="157" height="60" as="geometry"/>
        </mxCell>
        <mxCell id="BHo0XL-w9lSCpG-VcXgl-3" style="edgeStyle=orthogonalEdgeStyle;rounded=0;orthogonalLoop=1;jettySize=auto;html=1;exitX=0.5;exitY=1;exitDx=0;exitDy=0;" parent="1" source="ZdLvu9rMF-e9NeADQEDv-17" target="BHo0XL-w9lSCpG-VcXgl-2" edge="1">
          <mxGeometry relative="1" as="geometry"/>
        </mxCell>
        <mxCell id="ZdLvu9rMF-e9NeADQEDv-17" value="&lt;span style=&quot;font-size: 14px&quot;&gt;user: select &lt;br&gt;scheme index&lt;br&gt;&lt;/span&gt;" style="shape=parallelogram;perimeter=parallelogramPerimeter;whiteSpace=wrap;html=1;" parent="1" vertex="1">
          <mxGeometry x="450" y="1100" width="160" height="50" as="geometry"/>
        </mxCell>
        <mxCell id="ZdLvu9rMF-e9NeADQEDv-25" value="yes" style="edgeStyle=orthogonalEdgeStyle;rounded=0;orthogonalLoop=1;jettySize=auto;html=1;" parent="1" source="ZdLvu9rMF-e9NeADQEDv-22" target="ZdLvu9rMF-e9NeADQEDv-24" edge="1">
          <mxGeometry relative="1" as="geometry"/>
        </mxCell>
        <mxCell id="3d76lTKfxvikt1JQ4MvX-12" value="terminate" style="edgeStyle=orthogonalEdgeStyle;rounded=0;orthogonalLoop=1;jettySize=auto;html=1;exitX=0.5;exitY=1;exitDx=0;exitDy=0;entryX=0.5;entryY=0;entryDx=0;entryDy=0;entryPerimeter=0;" parent="1" source="ZdLvu9rMF-e9NeADQEDv-22" target="3d76lTKfxvikt1JQ4MvX-11" edge="1">
          <mxGeometry relative="1" as="geometry">
            <Array as="points">
              <mxPoint x="529" y="1360"/>
              <mxPoint x="620" y="1360"/>
            </Array>
          </mxGeometry>
        </mxCell>
        <mxCell id="3d76lTKfxvikt1JQ4MvX-14" style="edgeStyle=orthogonalEdgeStyle;rounded=0;orthogonalLoop=1;jettySize=auto;html=1;exitX=0;exitY=0.5;exitDx=0;exitDy=0;entryX=1;entryY=0.5;entryDx=0;entryDy=0;" parent="1" source="ZdLvu9rMF-e9NeADQEDv-22" target="3d76lTKfxvikt1JQ4MvX-13" edge="1">
          <mxGeometry relative="1" as="geometry"/>
        </mxCell>
        <mxCell id="3d76lTKfxvikt1JQ4MvX-17" value="uncertain" style="text;html=1;resizable=0;points=[];align=center;verticalAlign=middle;labelBackgroundColor=#ffffff;" parent="3d76lTKfxvikt1JQ4MvX-14" vertex="1" connectable="0">
          <mxGeometry x="-0.0784" y="-1" relative="1" as="geometry">
            <mxPoint as="offset"/>
          </mxGeometry>
        </mxCell>
        <mxCell id="BHo0XL-w9lSCpG-VcXgl-5" style="edgeStyle=orthogonalEdgeStyle;rounded=0;orthogonalLoop=1;jettySize=auto;html=1;exitX=1;exitY=0;exitDx=0;exitDy=0;entryX=1;entryY=0.5;entryDx=0;entryDy=0;" parent="1" source="ZdLvu9rMF-e9NeADQEDv-22" target="EZ8DaDbHSel93DJGd2NS-1" edge="1">
          <mxGeometry relative="1" as="geometry">
            <Array as="points">
              <mxPoint x="760" y="1291"/>
              <mxPoint x="760" y="715"/>
            </Array>
          </mxGeometry>
        </mxCell>
        <mxCell id="BHo0XL-w9lSCpG-VcXgl-6" value="change demands" style="text;html=1;resizable=0;points=[];align=center;verticalAlign=middle;labelBackgroundColor=#ffffff;" parent="BHo0XL-w9lSCpG-VcXgl-5" vertex="1" connectable="0">
          <mxGeometry x="-0.8921" y="-3" relative="1" as="geometry">
            <mxPoint x="49" y="-3" as="offset"/>
          </mxGeometry>
        </mxCell>
        <mxCell id="GT_nre5vJhFRovEMQurZ-2" style="edgeStyle=orthogonalEdgeStyle;rounded=0;orthogonalLoop=1;jettySize=auto;html=1;exitX=1;exitY=0.5;exitDx=0;exitDy=0;entryX=0.5;entryY=1;entryDx=0;entryDy=0;" parent="1" source="ZdLvu9rMF-e9NeADQEDv-22" target="GT_nre5vJhFRovEMQurZ-1" edge="1">
          <mxGeometry relative="1" as="geometry"/>
        </mxCell>
        <mxCell id="GT_nre5vJhFRovEMQurZ-4" value="just no" style="text;html=1;resizable=0;points=[];align=center;verticalAlign=middle;labelBackgroundColor=#ffffff;" parent="GT_nre5vJhFRovEMQurZ-2" vertex="1" connectable="0">
          <mxGeometry x="-0.0129" y="-1" relative="1" as="geometry">
            <mxPoint as="offset"/>
          </mxGeometry>
        </mxCell>
        <mxCell id="ZdLvu9rMF-e9NeADQEDv-22" value="&lt;font style=&quot;font-size: 14px&quot;&gt;slot 3?&lt;br&gt;&lt;/font&gt;" style="rhombus;whiteSpace=wrap;html=1;" parent="1" vertex="1">
          <mxGeometry x="450.5" y="1276" width="157" height="60" as="geometry"/>
        </mxCell>
        <mxCell id="ZdLvu9rMF-e9NeADQEDv-24" value="&lt;font style=&quot;font-size: 14px&quot;&gt;stop&lt;/font&gt;" style="strokeWidth=2;html=1;shape=mxgraph.flowchart.terminator;whiteSpace=wrap;" parent="1" vertex="1">
          <mxGeometry x="396" y="1384" width="100" height="60" as="geometry"/>
        </mxCell>
        <mxCell id="EZ8DaDbHSel93DJGd2NS-3" style="edgeStyle=orthogonalEdgeStyle;rounded=0;orthogonalLoop=1;jettySize=auto;html=1;exitX=0.5;exitY=1;exitDx=0;exitDy=0;entryX=0.5;entryY=0;entryDx=0;entryDy=0;" parent="1" source="EZ8DaDbHSel93DJGd2NS-1" target="ZdLvu9rMF-e9NeADQEDv-12" edge="1">
          <mxGeometry relative="1" as="geometry"/>
        </mxCell>
        <mxCell id="EZ8DaDbHSel93DJGd2NS-1" value="&lt;font style=&quot;font-size: 14px&quot;&gt;extract values and fill slots&lt;/font&gt;" style="rounded=1;whiteSpace=wrap;html=1;" parent="1" vertex="1">
          <mxGeometry x="456" y="689.8431252872242" width="144" height="50" as="geometry"/>
        </mxCell>
        <mxCell id="3d76lTKfxvikt1JQ4MvX-7" style="edgeStyle=orthogonalEdgeStyle;rounded=0;orthogonalLoop=1;jettySize=auto;html=1;exitX=1;exitY=0.5;exitDx=0;exitDy=0;entryX=0;entryY=0.5;entryDx=0;entryDy=0;entryPerimeter=0;" parent="1" source="3d76lTKfxvikt1JQ4MvX-1" target="3d76lTKfxvikt1JQ4MvX-6" edge="1">
          <mxGeometry relative="1" as="geometry"/>
        </mxCell>
        <mxCell id="3d76lTKfxvikt1JQ4MvX-9" value="yes" style="text;html=1;resizable=0;points=[];align=center;verticalAlign=middle;labelBackgroundColor=#ffffff;" parent="3d76lTKfxvikt1JQ4MvX-7" vertex="1" connectable="0">
          <mxGeometry x="-0.2412" relative="1" as="geometry">
            <mxPoint as="offset"/>
          </mxGeometry>
        </mxCell>
        <mxCell id="3d76lTKfxvikt1JQ4MvX-8" style="edgeStyle=orthogonalEdgeStyle;rounded=0;orthogonalLoop=1;jettySize=auto;html=1;exitX=0.5;exitY=1;exitDx=0;exitDy=0;entryX=0.5;entryY=0;entryDx=0;entryDy=0;" parent="1" source="3d76lTKfxvikt1JQ4MvX-1" target="EZ8DaDbHSel93DJGd2NS-1" edge="1">
          <mxGeometry relative="1" as="geometry"/>
        </mxCell>
        <mxCell id="3d76lTKfxvikt1JQ4MvX-10" value="no" style="text;html=1;resizable=0;points=[];align=center;verticalAlign=middle;labelBackgroundColor=#ffffff;" parent="3d76lTKfxvikt1JQ4MvX-8" vertex="1" connectable="0">
          <mxGeometry x="-0.2411" y="1" relative="1" as="geometry">
            <mxPoint as="offset"/>
          </mxGeometry>
        </mxCell>
        <mxCell id="3d76lTKfxvikt1JQ4MvX-1" value="terminate ?" style="rhombus;whiteSpace=wrap;html=1;" parent="1" vertex="1">
          <mxGeometry x="449.5" y="590" width="157" height="60" as="geometry"/>
        </mxCell>
        <mxCell id="3d76lTKfxvikt1JQ4MvX-6" value="&lt;font style=&quot;font-size: 14px&quot;&gt;stop&lt;/font&gt;" style="strokeWidth=2;html=1;shape=mxgraph.flowchart.terminator;whiteSpace=wrap;" parent="1" vertex="1">
          <mxGeometry x="670.5" y="590.0686753216912" width="100" height="60" as="geometry"/>
        </mxCell>
        <mxCell id="3d76lTKfxvikt1JQ4MvX-11" value="&lt;font style=&quot;font-size: 14px&quot;&gt;stop&lt;/font&gt;" style="strokeWidth=2;html=1;shape=mxgraph.flowchart.terminator;whiteSpace=wrap;" parent="1" vertex="1">
          <mxGeometry x="569.5" y="1384" width="100" height="60" as="geometry"/>
        </mxCell>
        <mxCell id="3d76lTKfxvikt1JQ4MvX-15" style="edgeStyle=orthogonalEdgeStyle;rounded=0;orthogonalLoop=1;jettySize=auto;html=1;exitX=0.5;exitY=0;exitDx=0;exitDy=0;entryX=0;entryY=0.25;entryDx=0;entryDy=0;" parent="1" source="3d76lTKfxvikt1JQ4MvX-13" target="ZdLvu9rMF-e9NeADQEDv-17" edge="1">
          <mxGeometry relative="1" as="geometry">
            <Array as="points">
              <mxPoint x="230" y="1117"/>
            </Array>
          </mxGeometry>
        </mxCell>
        <mxCell id="3d76lTKfxvikt1JQ4MvX-13" value="&lt;span style=&quot;font-size: 14px&quot;&gt;&amp;nbsp; &amp;nbsp;robot:ask 3 and give example answers&lt;br&gt;(select no.)&lt;/span&gt;" style="shape=parallelogram;perimeter=parallelogramPerimeter;whiteSpace=wrap;html=1;" parent="1" vertex="1">
          <mxGeometry x="139" y="1281" width="182" height="50" as="geometry"/>
        </mxCell>
        <mxCell id="pfhdU-tTY5kygRQVZPBf-1" value="&lt;font style=&quot;font-size: 14px&quot;&gt;robot: ask 1,2 and&lt;br&gt;give example to user&lt;/font&gt;" style="shape=parallelogram;perimeter=parallelogramPerimeter;whiteSpace=wrap;html=1;" parent="1" vertex="1">
          <mxGeometry x="439" y="419" width="181" height="53" as="geometry"/>
        </mxCell>
        <mxCell id="pfhdU-tTY5kygRQVZPBf-8" style="edgeStyle=orthogonalEdgeStyle;rounded=0;orthogonalLoop=1;jettySize=auto;html=1;exitX=0;exitY=0.5;exitDx=0;exitDy=0;entryX=0;entryY=0.5;entryDx=0;entryDy=0;" parent="1" source="pfhdU-tTY5kygRQVZPBf-4" target="ZdLvu9rMF-e9NeADQEDv-7" edge="1">
          <mxGeometry relative="1" as="geometry">
            <Array as="points">
              <mxPoint x="140" y="820"/>
              <mxPoint x="140" y="530"/>
            </Array>
          </mxGeometry>
        </mxCell>
        <mxCell id="pfhdU-tTY5kygRQVZPBf-4" value="&lt;font style=&quot;font-size: 14px&quot;&gt;robot: ask 2 and&lt;br&gt;give example to user&lt;/font&gt;" style="shape=parallelogram;perimeter=parallelogramPerimeter;whiteSpace=wrap;html=1;" parent="1" vertex="1">
          <mxGeometry x="180" y="793.5" width="181" height="53" as="geometry"/>
        </mxCell>
        <mxCell id="pfhdU-tTY5kygRQVZPBf-9" style="edgeStyle=orthogonalEdgeStyle;rounded=0;orthogonalLoop=1;jettySize=auto;html=1;exitX=0;exitY=0.5;exitDx=0;exitDy=0;entryX=0;entryY=0.5;entryDx=0;entryDy=0;" parent="1" source="pfhdU-tTY5kygRQVZPBf-5" target="ZdLvu9rMF-e9NeADQEDv-7" edge="1">
          <mxGeometry relative="1" as="geometry">
            <Array as="points">
              <mxPoint x="140" y="897"/>
              <mxPoint x="140" y="530"/>
            </Array>
          </mxGeometry>
        </mxCell>
        <mxCell id="pfhdU-tTY5kygRQVZPBf-5" value="&lt;font style=&quot;font-size: 14px&quot;&gt;robot: ask 1 and&lt;br&gt;give example to user&lt;/font&gt;" style="shape=parallelogram;perimeter=parallelogramPerimeter;whiteSpace=wrap;html=1;" parent="1" vertex="1">
          <mxGeometry x="170" y="870" width="181" height="53" as="geometry"/>
        </mxCell>
        <mxCell id="pfhdU-tTY5kygRQVZPBf-17" style="edgeStyle=orthogonalEdgeStyle;rounded=0;orthogonalLoop=1;jettySize=auto;html=1;exitX=0;exitY=0.5;exitDx=0;exitDy=0;entryX=0;entryY=0.5;entryDx=0;entryDy=0;" parent="1" source="pfhdU-tTY5kygRQVZPBf-13" target="ZdLvu9rMF-e9NeADQEDv-7" edge="1">
          <mxGeometry relative="1" as="geometry">
            <Array as="points">
              <mxPoint x="140" y="740"/>
              <mxPoint x="140" y="530"/>
            </Array>
          </mxGeometry>
        </mxCell>
        <mxCell id="pfhdU-tTY5kygRQVZPBf-13" value="&lt;font style=&quot;font-size: 14px&quot;&gt;robot: ask 1 and 2,&lt;br&gt;give example to user&lt;/font&gt;" style="shape=parallelogram;perimeter=parallelogramPerimeter;whiteSpace=wrap;html=1;" parent="1" vertex="1">
          <mxGeometry x="200" y="713.5" width="181" height="53" as="geometry"/>
        </mxCell>
        <mxCell id="RgJMSi6m_BIci-lzITr0-2" style="edgeStyle=orthogonalEdgeStyle;rounded=0;orthogonalLoop=1;jettySize=auto;html=1;exitX=0;exitY=0.5;exitDx=0;exitDy=0;entryX=0.5;entryY=0;entryDx=0;entryDy=0;" parent="1" source="pfhdU-tTY5kygRQVZPBf-18" target="RgJMSi6m_BIci-lzITr0-1" edge="1">
          <mxGeometry relative="1" as="geometry"/>
        </mxCell>
        <mxCell id="pfhdU-tTY5kygRQVZPBf-18" value="&lt;font style=&quot;font-size: 14px&quot;&gt;search scenic scheme by 1 and 2&lt;/font&gt;" style="rounded=1;whiteSpace=wrap;html=1;" parent="1" vertex="1">
          <mxGeometry x="457" y="929.8431252872242" width="144" height="50" as="geometry"/>
        </mxCell>
        <mxCell id="BHo0XL-w9lSCpG-VcXgl-4" style="edgeStyle=orthogonalEdgeStyle;rounded=0;orthogonalLoop=1;jettySize=auto;html=1;exitX=0.5;exitY=1;exitDx=0;exitDy=0;entryX=0.5;entryY=0;entryDx=0;entryDy=0;" parent="1" source="BHo0XL-w9lSCpG-VcXgl-2" target="ZdLvu9rMF-e9NeADQEDv-22" edge="1">
          <mxGeometry relative="1" as="geometry"/>
        </mxCell>
        <mxCell id="BHo0XL-w9lSCpG-VcXgl-2" value="&lt;font style=&quot;font-size: 14px&quot;&gt;extract values and fill slots&lt;/font&gt;" style="rounded=1;whiteSpace=wrap;html=1;" parent="1" vertex="1">
          <mxGeometry x="457.5" y="1190.1763772403492" width="144" height="50" as="geometry"/>
        </mxCell>
        <mxCell id="GT_nre5vJhFRovEMQurZ-3" style="edgeStyle=orthogonalEdgeStyle;rounded=0;orthogonalLoop=1;jettySize=auto;html=1;exitX=0.5;exitY=0;exitDx=0;exitDy=0;entryX=1;entryY=0.5;entryDx=0;entryDy=0;" parent="1" source="GT_nre5vJhFRovEMQurZ-1" target="ZdLvu9rMF-e9NeADQEDv-7" edge="1">
          <mxGeometry relative="1" as="geometry">
            <Array as="points">
              <mxPoint x="901" y="530"/>
            </Array>
          </mxGeometry>
        </mxCell>
        <mxCell id="GT_nre5vJhFRovEMQurZ-1" value="&lt;span style=&quot;font-size: 14px&quot;&gt;&amp;nbsp; &amp;nbsp;robot:ask 3 and give example answers&lt;br&gt;(select index)&lt;/span&gt;" style="shape=parallelogram;perimeter=parallelogramPerimeter;whiteSpace=wrap;html=1;" parent="1" vertex="1">
          <mxGeometry x="810" y="1110" width="182" height="50" as="geometry"/>
        </mxCell>
        <mxCell id="RgJMSi6m_BIci-lzITr0-3" value="Y" style="edgeStyle=orthogonalEdgeStyle;rounded=0;orthogonalLoop=1;jettySize=auto;html=1;exitX=1;exitY=0.5;exitDx=0;exitDy=0;entryX=0;entryY=0.25;entryDx=0;entryDy=0;" parent="1" source="RgJMSi6m_BIci-lzITr0-1" target="ZdLvu9rMF-e9NeADQEDv-10" edge="1">
          <mxGeometry relative="1" as="geometry"/>
        </mxCell>
        <mxCell id="RgJMSi6m_BIci-lzITr0-5" value="N" style="edgeStyle=orthogonalEdgeStyle;rounded=0;orthogonalLoop=1;jettySize=auto;html=1;exitX=0;exitY=0.5;exitDx=0;exitDy=0;" parent="1" source="RgJMSi6m_BIci-lzITr0-1" target="RgJMSi6m_BIci-lzITr0-4" edge="1">
          <mxGeometry relative="1" as="geometry"/>
        </mxCell>
        <mxCell id="RgJMSi6m_BIci-lzITr0-1" value="&lt;font style=&quot;font-size: 14px&quot;&gt;result ?&lt;/font&gt;" style="rhombus;whiteSpace=wrap;html=1;" parent="1" vertex="1">
          <mxGeometry x="212" y="998" width="157" height="60" as="geometry"/>
        </mxCell>
        <mxCell id="RgJMSi6m_BIci-lzITr0-6" style="edgeStyle=orthogonalEdgeStyle;rounded=0;orthogonalLoop=1;jettySize=auto;html=1;exitX=0.5;exitY=0;exitDx=0;exitDy=0;entryX=0;entryY=0.5;entryDx=0;entryDy=0;" parent="1" source="RgJMSi6m_BIci-lzITr0-4" target="ZdLvu9rMF-e9NeADQEDv-7" edge="1">
          <mxGeometry relative="1" as="geometry">
            <Array as="points">
              <mxPoint x="83" y="530"/>
            </Array>
          </mxGeometry>
        </mxCell>
        <mxCell id="RgJMSi6m_BIci-lzITr0-4" value="&lt;font style=&quot;font-size: 14px&quot;&gt;&amp;nbsp; &amp;nbsp; &amp;nbsp; robot: show current &lt;br&gt;slot values and ask&lt;br&gt;&amp;nbsp;new demands&lt;br&gt;&lt;/font&gt;" style="shape=parallelogram;perimeter=parallelogramPerimeter;whiteSpace=wrap;html=1;" parent="1" vertex="1">
          <mxGeometry x="-0.5" y="1001.5" width="166" height="53" as="geometry"/>
        </mxCell>
      </root>
    </mxGraphModel>
  </diagram>
</mxfile>
